<?xml version="1.0" encoding="UTF-8"?>
<svg id="Layer_2" data-name="Layer 2" xmlns="http://www.w3.org/2000/svg" xmlns:xlink="http://www.w3.org/1999/xlink" viewBox="0 0 473.87 410" >
  <defs>
    <style>
      .cls-1 {
        fill: url(#linear-gradient);
      }

      .cls-1, .cls-2, .cls-3, .cls-4, .cls-5, .cls-6, .cls-7, .cls-8, .cls-9, .cls-10, .cls-11, .cls-12, .cls-13, .cls-14, .cls-15, .cls-16, .cls-17, .cls-18, .cls-19, .cls-20, .cls-21, .cls-22, .cls-23, .cls-24, .cls-25, .cls-26, .cls-27, .cls-28, .cls-29, .cls-30, .cls-31, .cls-32, .cls-33, .cls-34, .cls-35, .cls-36, .cls-37, .cls-38, .cls-39, .cls-40, .cls-41, .cls-42, .cls-43, .cls-44, .cls-45, .cls-46, .cls-47, .cls-48, .cls-49, .cls-50, .cls-51, .cls-52, .cls-53, .cls-54, .cls-55, .cls-56, .cls-57, .cls-58, .cls-59, .cls-60 {
        stroke: #000;
        stroke-miterlimit: 10;
      }

      .cls-2 {
        fill: url(#linear-gradient-60);
      }

      .cls-3 {
        fill: url(#linear-gradient-58);
      }

      .cls-4 {
        fill: url(#linear-gradient-57);
      }

      .cls-5 {
        fill: url(#linear-gradient-59);
      }

      .cls-6 {
        fill: url(#linear-gradient-54);
      }

      .cls-7 {
        fill: url(#linear-gradient-53);
      }

      .cls-8 {
        fill: url(#linear-gradient-56);
      }

      .cls-9 {
        fill: url(#linear-gradient-55);
      }

      .cls-10 {
        fill: url(#linear-gradient-50);
      }

      .cls-11 {
        fill: url(#linear-gradient-52);
      }

      .cls-12 {
        fill: url(#linear-gradient-51);
      }

      .cls-13 {
        fill: url(#linear-gradient-23);
      }

      .cls-14 {
        fill: url(#linear-gradient-21);
      }

      .cls-15 {
        fill: url(#linear-gradient-20);
      }

      .cls-16 {
        fill: url(#linear-gradient-22);
      }

      .cls-17 {
        fill: url(#linear-gradient-18);
      }

      .cls-18 {
        fill: url(#linear-gradient-14);
      }

      .cls-19 {
        fill: url(#linear-gradient-17);
      }

      .cls-20 {
        fill: url(#linear-gradient-16);
      }

      .cls-21 {
        fill: url(#linear-gradient-19);
      }

      .cls-22 {
        fill: url(#linear-gradient-15);
      }

      .cls-23 {
        fill: url(#linear-gradient-10);
      }

      .cls-24 {
        fill: url(#linear-gradient-11);
      }

      .cls-25 {
        fill: url(#linear-gradient-12);
      }

      .cls-26 {
        fill: url(#linear-gradient-13);
      }

      .cls-27 {
        fill: url(#linear-gradient-36);
      }

      .cls-28 {
        fill: url(#linear-gradient-38);
      }

      .cls-29 {
        fill: url(#linear-gradient-35);
      }

      .cls-30 {
        fill: url(#linear-gradient-37);
      }

      .cls-31 {
        fill: url(#linear-gradient-34);
      }

      .cls-32 {
        fill: url(#linear-gradient-39);
      }

      .cls-33 {
        fill: url(#linear-gradient-33);
      }

      .cls-34 {
        fill: url(#linear-gradient-30);
      }

      .cls-35 {
        fill: url(#linear-gradient-32);
      }

      .cls-36 {
        fill: url(#linear-gradient-25);
      }

      .cls-37 {
        fill: url(#linear-gradient-28);
      }

      .cls-38 {
        fill: url(#linear-gradient-29);
      }

      .cls-39 {
        fill: url(#linear-gradient-31);
      }

      .cls-40 {
        fill: url(#linear-gradient-27);
      }

      .cls-41 {
        fill: url(#linear-gradient-26);
      }

      .cls-42 {
        fill: url(#linear-gradient-24);
      }

      .cls-43 {
        fill: url(#linear-gradient-41);
      }

      .cls-44 {
        fill: url(#linear-gradient-40);
      }

      .cls-45 {
        fill: url(#linear-gradient-43);
      }

      .cls-46 {
        fill: url(#linear-gradient-42);
      }

      .cls-47 {
        fill: url(#linear-gradient-46);
      }

      .cls-48 {
        fill: url(#linear-gradient-45);
      }

      .cls-49 {
        fill: url(#linear-gradient-44);
      }

      .cls-50 {
        fill: url(#linear-gradient-49);
      }

      .cls-51 {
        fill: url(#linear-gradient-47);
      }

      .cls-52 {
        fill: url(#linear-gradient-48);
      }

      .cls-53 {
        fill: url(#linear-gradient-9);
      }

      .cls-54 {
        fill: url(#linear-gradient-2);
      }

      .cls-55 {
        fill: url(#linear-gradient-3);
      }

      .cls-56 {
        fill: url(#linear-gradient-7);
      }

      .cls-57 {
        fill: url(#linear-gradient-6);
      }

      .cls-58 {
        fill: url(#linear-gradient-5);
      }

      .cls-59 {
        fill: url(#linear-gradient-4);
      }

      .cls-60 {
        fill: url(#linear-gradient-8);
      }
    </style>
   
      <rect class="cls-1" x=".58" y="51.5" width="117.5" height="51"/>
    <linearGradient id="linear-gradient" x1=".58" y1="51.5" x2="118.08" y2="51.5" gradientUnits="userSpaceOnUse">
      <stop offset="0" stop-color="lime"/>
      <stop offset=".53" stop-color="aqua"/>
      <stop offset="1" stop-color="#f0f"/>
    </linearGradient>
    <linearGradient id="linear-gradient-2" x1="32.34" y1="94.7" x2="36.76" y2="94.7" xlink:href="#linear-gradient"/>
    <linearGradient id="linear-gradient-3" x1="32.16" y1="6.98" x2="35.16" y2="6.98" xlink:href="#linear-gradient"/>
    <linearGradient id="linear-gradient-4" x1="5.44" y1="51.18" x2="7.17" y2="51.18" xlink:href="#linear-gradient"/>
    <linearGradient id="linear-gradient-5" x1="83.47" y1="95.97" x2="86.48" y2="95.97" xlink:href="#linear-gradient"/>
    <linearGradient id="linear-gradient-6" x1="111.96" y1="51.4" x2="113.67" y2="51.4" xlink:href="#linear-gradient"/>
    <linearGradient id="linear-gradient-7" x1="118.79" x2="236.29" xlink:href="#linear-gradient"/>
    <linearGradient id="linear-gradient-8" x1="150.55" y1="94.7" x2="154.97" y2="94.7" xlink:href="#linear-gradient"/>
    <linearGradient id="linear-gradient-9" x1="150.37" y1="6.98" x2="153.38" y2="6.98" xlink:href="#linear-gradient"/>
    <linearGradient id="linear-gradient-10" x1="123.65" y1="51.18" x2="125.39" y2="51.18" xlink:href="#linear-gradient"/>
    <linearGradient id="linear-gradient-11" x1="201.68" y1="95.97" x2="204.69" y2="95.97" xlink:href="#linear-gradient"/>
    <linearGradient id="linear-gradient-12" x1="230.17" y1="51.4" x2="231.89" y2="51.4" xlink:href="#linear-gradient"/>
    <linearGradient id="linear-gradient-13" x1="59.45" y1="153.5" x2="176.95" y2="153.5" xlink:href="#linear-gradient"/>
    <linearGradient id="linear-gradient-14" x1="91.21" y1="196.71" x2="95.63" y2="196.71" xlink:href="#linear-gradient"/>
    <linearGradient id="linear-gradient-15" x1="91.03" y1="108.99" x2="94.03" y2="108.99" xlink:href="#linear-gradient"/>
    <linearGradient id="linear-gradient-16" x1="64.31" y1="153.25" x2="66.04" y2="153.25" xlink:href="#linear-gradient"/>
    <linearGradient id="linear-gradient-17" x1="142.34" y1="197.98" x2="145.35" y2="197.98" xlink:href="#linear-gradient"/>
    <linearGradient id="linear-gradient-18" x1="170.83" y1="153.47" x2="172.54" y2="153.47" xlink:href="#linear-gradient"/>
    <linearGradient id="linear-gradient-19" x1="237.58" y1="52.5" x2="355.08" y2="52.5" xlink:href="#linear-gradient"/>
    <linearGradient id="linear-gradient-20" x1="269.34" y1="95.7" x2="273.76" y2="95.7" xlink:href="#linear-gradient"/>
    <linearGradient id="linear-gradient-21" x1="269.16" y1="7.98" x2="272.16" y2="7.98" xlink:href="#linear-gradient"/>
    <linearGradient id="linear-gradient-22" x1="242.44" y1="52.18" x2="244.17" y2="52.18" xlink:href="#linear-gradient"/>
    <linearGradient id="linear-gradient-23" x1="320.47" y1="96.97" x2="323.48" y2="96.97" xlink:href="#linear-gradient"/>
    <linearGradient id="linear-gradient-24" x1="348.96" y1="52.4" x2="350.67" y2="52.4" xlink:href="#linear-gradient"/>
    <linearGradient id="linear-gradient-25" x1="355.79" y1="52.5" x2="473.29" y2="52.5" xlink:href="#linear-gradient"/>
    <linearGradient id="linear-gradient-26" x1="387.55" y1="95.7" x2="391.97" y2="95.7" xlink:href="#linear-gradient"/>
    <linearGradient id="linear-gradient-27" x1="387.37" y1="7.98" x2="390.38" y2="7.98" xlink:href="#linear-gradient"/>
    <linearGradient id="linear-gradient-28" x1="360.65" y1="52.18" x2="362.39" y2="52.18" xlink:href="#linear-gradient"/>
    <linearGradient id="linear-gradient-29" x1="438.68" y1="96.97" x2="441.69" y2="96.97" xlink:href="#linear-gradient"/>
    <linearGradient id="linear-gradient-30" x1="467.17" y1="52.4" x2="468.89" y2="52.4" xlink:href="#linear-gradient"/>
    <linearGradient id="linear-gradient-31" x1="296.45" y1="154.5" x2="413.95" y2="154.5" xlink:href="#linear-gradient"/>
    <linearGradient id="linear-gradient-32" x1="328.21" y1="197.71" x2="332.63" y2="197.71" xlink:href="#linear-gradient"/>
    <linearGradient id="linear-gradient-33" x1="328.03" y1="109.99" x2="331.03" y2="109.99" xlink:href="#linear-gradient"/>
    <linearGradient id="linear-gradient-34" x1="301.31" y1="154.25" x2="303.04" y2="154.25" xlink:href="#linear-gradient"/>
    <linearGradient id="linear-gradient-35" x1="379.34" y1="198.98" x2="382.35" y2="198.98" xlink:href="#linear-gradient"/>
    <linearGradient id="linear-gradient-36" x1="407.83" y1="154.47" x2="409.54" y2="154.47" xlink:href="#linear-gradient"/>
    <linearGradient id="linear-gradient-37" x1="118.58" y1="59.5" x2="236.08" y2="59.5" gradientTransform="translate(0 315) scale(1 -1)" xlink:href="#linear-gradient"/>
    <linearGradient id="linear-gradient-38" x1="150.34" y1="102.7" x2="154.76" y2="102.7" gradientTransform="translate(0 315) scale(1 -1)" xlink:href="#linear-gradient"/>
    <linearGradient id="linear-gradient-39" x1="150.16" y1="14.98" x2="153.16" y2="14.98" gradientTransform="translate(0 315) scale(1 -1)" xlink:href="#linear-gradient"/>
    <linearGradient id="linear-gradient-40" x1="123.44" y1="59.18" x2="125.17" y2="59.18" gradientTransform="translate(0 315) scale(1 -1)" xlink:href="#linear-gradient"/>
    <linearGradient id="linear-gradient-41" x1="201.47" y1="103.97" x2="204.48" y2="103.97" gradientTransform="translate(0 315) scale(1 -1)" xlink:href="#linear-gradient"/>
    <linearGradient id="linear-gradient-42" x1="229.96" y1="59.4" x2="231.67" y2="59.4" gradientTransform="translate(0 315) scale(1 -1)" xlink:href="#linear-gradient"/>
    <linearGradient id="linear-gradient-43" x1="236.79" y1="59.5" x2="354.29" y2="59.5" gradientTransform="translate(0 315) scale(1 -1)" xlink:href="#linear-gradient"/>
    <linearGradient id="linear-gradient-44" x1="268.55" y1="102.7" x2="272.97" y2="102.7" gradientTransform="translate(0 315) scale(1 -1)" xlink:href="#linear-gradient"/>
    <linearGradient id="linear-gradient-45" x1="268.37" y1="14.98" x2="271.38" y2="14.98" gradientTransform="translate(0 315) scale(1 -1)" xlink:href="#linear-gradient"/>
    <linearGradient id="linear-gradient-46" x1="241.65" y1="59.18" x2="243.39" y2="59.18" gradientTransform="translate(0 315) scale(1 -1)" xlink:href="#linear-gradient"/>
    <linearGradient id="linear-gradient-47" x1="319.68" y1="103.97" x2="322.69" y2="103.97" gradientTransform="translate(0 315) scale(1 -1)" xlink:href="#linear-gradient"/>
    <linearGradient id="linear-gradient-48" x1="348.17" y1="59.4" x2="349.89" y2="59.4" gradientTransform="translate(0 315) scale(1 -1)" xlink:href="#linear-gradient"/>
    <linearGradient id="linear-gradient-49" x1="177.45" y1="161.5" x2="294.95" y2="161.5" gradientTransform="translate(0 315) scale(1 -1)" xlink:href="#linear-gradient"/>
    <linearGradient id="linear-gradient-50" x1="209.21" y1="204.71" x2="213.63" y2="204.71" gradientTransform="translate(0 315) scale(1 -1)" xlink:href="#linear-gradient"/>
    <linearGradient id="linear-gradient-51" x1="209.03" y1="116.99" x2="212.03" y2="116.99" gradientTransform="translate(0 315) scale(1 -1)" xlink:href="#linear-gradient"/>
    <linearGradient id="linear-gradient-52" x1="182.31" y1="161.25" x2="184.04" y2="161.25" gradientTransform="translate(0 315) scale(1 -1)" xlink:href="#linear-gradient"/>
    <linearGradient id="linear-gradient-53" x1="260.34" y1="205.98" x2="263.35" y2="205.98" gradientTransform="translate(0 315) scale(1 -1)" xlink:href="#linear-gradient"/>
    <linearGradient id="linear-gradient-54" x1="288.83" y1="161.47" x2="290.54" y2="161.47" gradientTransform="translate(0 315) scale(1 -1)" xlink:href="#linear-gradient"/>
    <linearGradient id="linear-gradient-55" x1="177.79" y1="-43.5" x2="295.29" y2="-43.5" gradientTransform="translate(0 315) scale(1 -1)" xlink:href="#linear-gradient"/>
    <linearGradient id="linear-gradient-56" x1="209.55" y1="-.3" x2="213.97" y2="-.3" gradientTransform="translate(0 315) scale(1 -1)" xlink:href="#linear-gradient"/>
    <linearGradient id="linear-gradient-57" x1="209.37" y1="-88.02" x2="212.38" y2="-88.02" gradientTransform="translate(0 315) scale(1 -1)" xlink:href="#linear-gradient"/>
    <linearGradient id="linear-gradient-58" x1="182.65" y1="-43.82" x2="184.39" y2="-43.82" gradientTransform="translate(0 315) scale(1 -1)" xlink:href="#linear-gradient"/>
    <linearGradient id="linear-gradient-59" x1="260.68" y1=".97" x2="263.69" y2=".97" gradientTransform="translate(0 315) scale(1 -1)" xlink:href="#linear-gradient"/>
    <linearGradient id="linear-gradient-60" x1="289.17" y1="-43.6" x2="290.89" y2="-43.6" gradientTransform="translate(0 315) scale(1 -1)" xlink:href="#linear-gradient"/>
  
  </defs>
  <g>
    <path class="cls-1" d="M88.7.5H29.95L.58,51.5l29.38,51h58.75l29.38-51L88.7.5ZM86.61,98.5h-.27l-.13.23-.12-.23h-53.33l-.06.12-.07-.12h-.61l.32-.61L5.51,51.29h-.55S32.16,4.63,32.16,4.63l-.14-.13h.27l.13-.23.12.23h54.08l-27.3,43.34L35.16,9.35l21.08,40.18-49.06,1.66,49.53,1.89-19.95,37.68,22.56-35.9,24.15,38.43-21.07-40.2,49.56-1.69-49.08-1.88L86.88,4.18l27.26,47.3-.54-.02-27.12,46.72.14.32Z"/>
    <polygon class="cls-54" points="32.34 97.89 32.63 98.5 32.76 98.5 36.76 90.91 32.34 97.89"/>
    <polygon class="cls-55" points="32.54 4.5 32.28 4.5 32.16 4.62 35.16 9.46 32.54 4.5"/>
    <polygon class="cls-59" points="5.44 51.12 5.51 51.24 7.17 51.18 5.44 51.12"/>
    <polygon class="cls-58" points="86.09 98.5 86.35 98.5 86.48 98.18 83.47 93.44 86.09 98.5"/>
    <polygon class="cls-57" points="113.67 51.34 111.96 51.4 113.6 51.46 113.67 51.34"/>
  </g>
  <g>
    <path class="cls-56" d="M206.92.5h-58.75l-29.37,51,29.37,51h58.75l29.38-51L206.92.5ZM204.83,98.5h-.27l-.13.23-.12-.23h-53.33l-.06.12-.07-.12h-.61l.32-.61-26.83-46.6h-.55s27.19-46.66,27.19-46.66l-.14-.13h.27l.13-.23.12.23h54.08l-27.3,43.34-24.15-38.49,21.07,40.18-49.06,1.66,49.53,1.89-19.95,37.68,22.56-35.9,24.15,38.43-21.07-40.2,49.56-1.69-49.08-1.88,24.01-45.34,27.26,47.3-.54-.02-27.12,46.72.14.32Z"/>
    <polygon class="cls-60" points="150.55 97.89 150.85 98.5 150.98 98.5 154.97 90.91 150.55 97.89"/>
    <polygon class="cls-53" points="150.76 4.5 150.5 4.5 150.37 4.62 153.38 9.46 150.76 4.5"/>
    <polygon class="cls-23" points="123.65 51.12 123.72 51.24 125.39 51.18 123.65 51.12"/>
    <polygon class="cls-24" points="204.31 98.5 204.56 98.5 204.69 98.18 201.68 93.44 204.31 98.5"/>
    <polygon class="cls-25" points="231.89 51.34 230.17 51.4 231.82 51.46 231.89 51.34"/>
  </g>
  <g>
    <path class="cls-26" d="M147.57,102.5h-58.75l-29.37,51,29.37,51h58.75l29.38-51-29.37-51ZM145.49,200.5h-.27l-.13.23-.12-.23h-53.33l-.06.12-.07-.12h-.61l.32-.57-26.83-46.58h-.55s27.19-46.68,27.19-46.68l-.14-.16h.27l.13-.23.12.23h54.08l-27.3,43.38-24.15-38.47,21.08,40.19-49.06,1.67,49.53,1.89-19.95,37.68,22.56-35.9,24.15,38.43-21.07-40.2,49.56-1.69-49.08-1.88,24.01-45.34,27.26,47.3-.54-.02-27.12,46.68.14.28Z"/>
    <polygon class="cls-18" points="91.21 199.93 91.5 200.5 91.63 200.5 95.63 192.93 91.21 199.93"/>
    <polygon class="cls-22" points="91.41 106.5 91.15 106.5 91.03 106.66 94.03 111.47 91.41 106.5"/>
    <polygon class="cls-20" points="64.31 153.19 64.38 153.31 66.04 153.26 64.31 153.19"/>
    <polygon class="cls-19" points="144.96 200.5 145.22 200.5 145.35 200.22 142.34 195.46 144.96 200.5"/>
    <polygon class="cls-17" points="172.54 153.41 170.83 153.47 172.47 153.54 172.54 153.41"/>
  </g>
  <g>
    <path class="cls-21" d="M325.7,1.5h-58.75l-29.37,51,29.37,51h58.75l29.37-51L325.7,1.5ZM323.61,99.5h-.27l-.13.23-.12-.23h-53.33l-.06.12-.07-.12h-.61l.32-.61-26.83-46.6h-.55s27.19-46.66,27.19-46.66l-.14-.13h.27l.13-.23.12.23h54.08l-27.3,43.34-24.15-38.49,21.08,40.18-49.06,1.66,49.53,1.89-19.95,37.68,22.56-35.9,24.15,38.43-21.07-40.2,49.56-1.69-49.08-1.88,24.01-45.34,27.26,47.3-.54-.02-27.12,46.72.14.32Z"/>
    <polygon class="cls-15" points="269.34 98.89 269.63 99.5 269.76 99.5 273.76 91.91 269.34 98.89"/>
    <polygon class="cls-14" points="269.54 5.5 269.28 5.5 269.16 5.62 272.16 10.46 269.54 5.5"/>
    <polygon class="cls-16" points="242.44 52.12 242.51 52.24 244.17 52.18 242.44 52.12"/>
    <polygon class="cls-13" points="323.09 99.5 323.35 99.5 323.48 99.18 320.47 94.44 323.09 99.5"/>
    <polygon class="cls-42" points="350.67 52.34 348.96 52.4 350.6 52.46 350.67 52.34"/>
  </g>
  <g>
    <path class="cls-36" d="M443.92,1.5h-58.75l-29.37,51,29.37,51h58.75l29.38-51L443.92,1.5ZM441.83,99.5h-.27l-.13.23-.12-.23h-53.33l-.06.12-.07-.12h-.61l.32-.61-26.83-46.6h-.54s27.19-46.66,27.19-46.66l-.14-.13h.27l.13-.23.12.23h54.08l-27.3,43.34-24.15-38.49,21.07,40.18-49.06,1.66,49.53,1.89-19.95,37.68,22.56-35.9,24.15,38.43-21.07-40.2,49.56-1.69-49.08-1.88,24.01-45.34,27.26,47.3-.54-.02-27.12,46.72.14.32Z"/>
    <polygon class="cls-41" points="387.55 98.89 387.85 99.5 387.98 99.5 391.97 91.91 387.55 98.89"/>
    <polygon class="cls-40" points="387.75 5.5 387.5 5.5 387.37 5.62 390.38 10.46 387.75 5.5"/>
    <polygon class="cls-37" points="360.65 52.12 360.72 52.24 362.39 52.18 360.65 52.12"/>
    <polygon class="cls-38" points="441.31 99.5 441.56 99.5 441.69 99.18 438.68 94.44 441.31 99.5"/>
    <polygon class="cls-34" points="468.89 52.34 467.17 52.4 468.82 52.46 468.89 52.34"/>
  </g>
  <g>
    <path class="cls-39" d="M384.57,103.5h-58.75l-29.37,51,29.37,51h58.75l29.37-51-29.37-51ZM382.49,201.5h-.27l-.13.23-.12-.23h-53.33l-.06.12-.07-.12h-.61l.32-.57-26.83-46.58h-.55s27.19-46.68,27.19-46.68l-.14-.16h.27l.13-.23.12.23h54.08l-27.3,43.38-24.15-38.47,21.07,40.19-49.06,1.67,49.53,1.89-19.95,37.68,22.56-35.9,24.15,38.43-21.07-40.2,49.56-1.69-49.08-1.88,24.01-45.34,27.26,47.3-.54-.02-27.12,46.68.14.28Z"/>
    <polygon class="cls-35" points="328.21 200.93 328.5 201.5 328.63 201.5 332.63 193.93 328.21 200.93"/>
    <polygon class="cls-33" points="328.41 107.5 328.15 107.5 328.03 107.66 331.03 112.47 328.41 107.5"/>
    <polygon class="cls-31" points="301.31 154.19 301.38 154.31 303.04 154.26 301.31 154.19"/>
    <polygon class="cls-29" points="381.96 201.5 382.22 201.5 382.35 201.22 379.34 196.46 381.96 201.5"/>
    <polygon class="cls-27" points="409.54 154.41 407.83 154.47 409.47 154.54 409.54 154.41"/>
  </g>
  <g>
    <path class="cls-30" d="M236.08,255.5l-29.38-51h-58.75l-29.37,51,29.37,51h58.75l29.37-51ZM204.48,208.82l27.12,46.72.54-.02-27.26,47.3-24.01-45.34,49.08-1.88-49.56-1.69,21.07-40.2-24.15,38.43-22.56-35.9,19.95,37.68-49.53,1.89,49.06,1.66-21.08,40.18,24.15-38.49,27.3,43.34h-54.08l-.12.23-.13-.23h-.27l.14-.13-27.19-46.65h.55s26.83-46.61,26.83-46.61l-.32-.61h.61l.07-.12.06.12h53.33l.12-.23.13.23h.27l-.14.32Z"/>
    <polygon class="cls-28" points="150.34 209.11 150.63 208.5 150.76 208.5 154.76 216.09 150.34 209.11"/>
    <polygon class="cls-32" points="150.54 302.5 150.28 302.5 150.16 302.38 153.16 297.54 150.54 302.5"/>
    <polygon class="cls-44" points="123.44 255.88 123.51 255.76 125.17 255.82 123.44 255.88"/>
    <polygon class="cls-43" points="204.09 208.5 204.35 208.5 204.48 208.82 201.47 213.56 204.09 208.5"/>
    <polygon class="cls-46" points="231.67 255.66 229.96 255.6 231.6 255.54 231.67 255.66"/>
  </g>
  <g>
    <path class="cls-45" d="M354.29,255.5l-29.38-51h-58.75l-29.37,51,29.37,51h58.75l29.37-51ZM322.69,208.82l27.12,46.72.54-.02-27.26,47.3-24.01-45.34,49.08-1.88-49.56-1.69,21.07-40.2-24.15,38.43-22.56-35.9,19.95,37.68-49.53,1.89,49.06,1.66-21.07,40.18,24.15-38.49,27.3,43.34h-54.08l-.12.23-.13-.23h-.27l.14-.13-27.19-46.65h.54s26.83-46.61,26.83-46.61l-.32-.61h.61l.07-.12.06.12h53.33l.12-.23.13.23h.27l-.14.32Z"/>
    <polygon class="cls-49" points="268.55 209.11 268.85 208.5 268.98 208.5 272.97 216.09 268.55 209.11"/>
    <polygon class="cls-48" points="268.75 302.5 268.5 302.5 268.37 302.38 271.38 297.54 268.75 302.5"/>
    <polygon class="cls-47" points="241.65 255.88 241.72 255.76 243.39 255.82 241.65 255.88"/>
    <polygon class="cls-51" points="322.31 208.5 322.56 208.5 322.69 208.82 319.68 213.56 322.31 208.5"/>
    <polygon class="cls-52" points="349.89 255.66 348.17 255.6 349.82 255.54 349.89 255.66"/>
  </g>
  <g>
    <path class="cls-50" d="M294.95,153.5l-29.37-51h-58.75l-29.37,51,29.37,51h58.75l29.37-51ZM263.35,106.78l27.12,46.68.54-.02-27.26,47.3-24.01-45.34,49.08-1.88-49.56-1.69,21.07-40.2-24.15,38.43-22.56-35.9,19.95,37.68-49.53,1.89,49.06,1.67-21.08,40.19,24.15-38.47,27.3,43.38h-54.08l-.12.23-.13-.23h-.27l.14-.16-27.19-46.68h.55s26.83-46.58,26.83-46.58l-.32-.57h.61l.07-.12.06.12h53.33l.12-.23.13.23h.27l-.14.28Z"/>
    <polygon class="cls-10" points="209.21 107.07 209.5 106.5 209.63 106.5 213.63 114.07 209.21 107.07"/>
    <polygon class="cls-12" points="209.41 200.5 209.15 200.5 209.03 200.34 212.03 195.53 209.41 200.5"/>
    <polygon class="cls-11" points="182.31 153.81 182.38 153.69 184.04 153.74 182.31 153.81"/>
    <polygon class="cls-7" points="262.96 106.5 263.22 106.5 263.35 106.78 260.34 111.54 262.96 106.5"/>
    <polygon class="cls-6" points="290.54 153.59 288.83 153.53 290.47 153.46 290.54 153.59"/>
  </g>
  <g>
    <path class="cls-9" d="M295.29,358.5l-29.38-51h-58.75l-29.37,51,29.37,51h58.75l29.37-51ZM263.69,311.82l27.12,46.72.54-.02-27.26,47.3-24.01-45.34,49.08-1.88-49.56-1.69,21.07-40.2-24.15,38.43-22.56-35.9,19.95,37.68-49.53,1.89,49.06,1.66-21.07,40.18,24.15-38.49,27.3,43.34h-54.08l-.12.23-.13-.23h-.27l.14-.13-27.19-46.65h.54s26.83-46.61,26.83-46.61l-.32-.61h.61l.07-.12.06.12h53.33l.12-.23.13.23h.27l-.14.32Z"/>
    <polygon class="cls-8" points="209.55 312.11 209.85 311.5 209.98 311.5 213.97 319.09 209.55 312.11"/>
    <polygon class="cls-4" points="209.75 405.5 209.5 405.5 209.37 405.38 212.38 400.54 209.75 405.5"/>
    <polygon class="cls-3" points="182.65 358.88 182.72 358.76 184.39 358.82 182.65 358.88"/>
    <polygon class="cls-5" points="263.31 311.5 263.56 311.5 263.69 311.82 260.68 316.56 263.31 311.5"/>
    <polygon class="cls-2" points="290.89 358.66 289.17 358.6 290.82 358.54 290.89 358.66"/>
  </g>
</svg>